<svg xmlns="http://www.w3.org/2000/svg" viewBox="0 0 64 64" role="img" aria-labelledby="title desc">
  <title id="title">墨鱼排版动态标志</title>
  <desc id="desc">墨鱼轻轻漂浮，三行文字依次显现</desc>
  <style>
    #cuttlefish,
    #type-lines,
    #tentacles {
      transform-box: fill-box;
      transform-origin: center;
    }

    #cuttlefish,
    #tentacles {
      animation: float 2.8s ease-in-out infinite;
    }

    #type-lines rect {
      animation: compose 2.8s ease-in-out infinite;
      transform-box: fill-box;
      transform-origin: left center;
    }

    #type-lines rect:nth-child(2) { animation-delay: .12s; }
    #type-lines rect:nth-child(3) { animation-delay: .24s; }

    @keyframes float {
      0%, 100% { transform: translateY(0); }
      50% { transform: translateY(-1.25px); }
    }

    @keyframes compose {
      0%, 12% { opacity: .35; transform: scaleX(.42); }
      38%, 82% { opacity: 1; transform: scaleX(1); }
      100% { opacity: .35; transform: scaleX(.42); }
    }

    @media (prefers-reduced-motion: reduce) {
      #cuttlefish,
      #tentacles,
      #type-lines rect { animation: none; }
    }
  </style>

  <rect width="64" height="64" rx="17" fill="#2f3331"/>

  <g id="cuttlefish" fill="#fafaf8">
    <path id="mantle" d="M32 10.5c-5.9 3.7-11.3 8.8-14.4 15.2-2.7 5.7-.7 12.7 4.7 16.1 2.6 1.7 5.9 2.6 9.7 2.6s7.1-.9 9.7-2.6c5.4-3.4 7.4-10.4 4.7-16.1C43.3 19.3 37.9 14.2 32 10.5Z"/>
    <path id="left-fin" d="M19.3 22.5c-4.3 1.6-6.8 4.6-6.8 8 0 2.6 1.4 4.9 4 6.6-.4-1.5-.6-3-.6-4.5 0-3.6 1.2-7 3.4-10.1Z"/>
    <path id="right-fin" d="M44.7 22.5c4.3 1.6 6.8 4.6 6.8 8 0 2.6-1.4 4.9-4 6.6.4-1.5.6-3 .6-4.5 0-3.6-1.2-7-3.4-10.1Z"/>
  </g>

  <g id="type-lines" fill="#2f3331">
    <rect x="24" y="25" width="16" height="2.4" rx="1.2"/>
    <rect x="24" y="30.2" width="12.5" height="2.4" rx="1.2"/>
    <rect x="24" y="35.4" width="8.5" height="2.4" rx="1.2"/>
  </g>

  <g id="tentacles" fill="none" stroke="#fafaf8" stroke-linecap="round" stroke-width="4.6">
    <path id="tentacle-left" d="M25 41.8c-.3 4.7-2.3 6.2-5.2 7.3-2.2.8-2.9 2.9-1.7 4.4 1.1 1.4 3.3 1.3 4.6-.1"/>
    <path id="tentacle-mid-left" d="M29.7 43.3c-.1 4.4-2.1 6.2-1.4 9.3.4 1.9 2.2 2.7 3.7 1.8"/>
    <path id="tentacle-mid-right" d="M34.3 43.3c.1 4.4 2.1 6.2 1.4 9.3-.4 1.9-2.2 2.7-3.7 1.8"/>
    <path id="tentacle-right" d="M39 41.8c.3 4.7 2.3 6.2 5.2 7.3 2.2.8 2.9 2.9 1.7 4.4-1.1 1.4-3.3 1.3-4.6-.1"/>
  </g>
</svg>
